<svg width="1263.537646484375px" height="148.4px" xmlns="http://www.w3.org/2000/svg" viewBox="-381.7688232421875 0.7999999999999972 1263.537646484375 148.4" style="background: solid;" preserveAspectRatio="xMidYMid"><defs><linearGradient id="editing-outline-gradient" x1="-0.5" x2="1.5" y1="0.5" y2="0.5"><stop offset="0" stop-color="#ffdc00"></stop><stop offset="1" stop-color="#ffdc00"></stop></linearGradient><filter id="editing-outline" x="-100%" y="-100%" width="300%" height="300%"><feMorphology in="SourceGraphic" operator="dilate" radius="3" result="outline"></feMorphology><feComposite operator="out" in="outline" in2="SourceAlpha"></feComposite></filter></defs><g filter="url(#editing-outline)"><g transform="translate(-207.70498275756836, 122.43999862670898)"><path d="M9.16-71.42L19.37-71.42L19.37-10.21L56.08-10.21L56.08 0L9.16 0L9.16-71.42ZM67.34-9.81L67.34-23.16L67.34-23.16Q67.34-25.20 68.11-26.97L68.11-26.97L68.11-26.97Q68.88-28.74 70.20-30.08L70.20-30.08L70.20-30.08Q71.52-31.43 73.31-32.20L73.31-32.20L73.31-32.20Q75.11-32.97 77.10-32.97L77.10-32.97L102.40-32.97L102.40-43.23L70.37-43.23L70.37-53.04L102.40-53.04L102.40-53.04Q104.44-53.04 106.23-52.27L106.23-52.27L106.23-52.27Q108.03-51.50 109.35-50.18L109.35-50.18L109.35-50.18Q110.67-48.86 111.44-47.07L111.44-47.07L111.44-47.07Q112.21-45.27 112.21-43.23L112.21-43.23L112.21 0L102.40 0L102.40-8.96L102.40-8.96Q102.25-7.12 101.40-5.48L101.40-5.48L101.40-5.48Q100.56-3.83 99.24-2.61L99.24-2.61L99.24-2.61Q97.92-1.39 96.22-0.70L96.22-0.70L96.22-0.70Q94.53 0 92.64 0L92.64 0L77.10 0L77.10 0Q75.11 0 73.31-0.77L73.31-0.77L73.31-0.77Q71.52-1.54 70.20-2.86L70.20-2.86L70.20-2.86Q68.88-4.18 68.11-5.98L68.11-5.98L68.11-5.98Q67.34-7.77 67.34-9.81L67.34-9.81ZM77.10-23.16L77.10-9.81L102.40-9.81L102.40-23.16L77.10-23.16ZM222.48-10.01L222.48 0L219.29 0L219.29 0Q209.03 0 204.90-5.93L204.90-5.93L204.90-5.93Q200.66 0 190.55 0L190.55 0L175.46 0L175.46 0Q158.08 0 158.08-17.33L158.08-17.33L158.08-20.92L158.08-20.92Q158.08-27.59 160.47-31.63L160.47-31.63L160.47-31.63Q162.86-35.66 167.39-37.00L167.39-37.00L167.39-37.00Q163.36-38.90 161.24-42.81L161.24-42.81L161.24-42.81Q159.13-46.72 159.13-52.74L159.13-52.74L159.13-54.04L159.13-54.04Q159.13-71.42 176.46-71.42L176.46-71.42L191.55-71.42L191.55-71.42Q200.36-71.42 204.62-67.14L204.62-67.14L204.62-67.14Q208.88-62.85 208.88-54.04L208.88-54.04L208.88-49.75L198.92-49.75L198.92-53.54L198.92-53.54Q198.92-57.62 197.13-59.52L197.13-59.52L197.13-59.52Q195.33-61.41 191.25-61.41L191.25-61.41L176.76-61.41L176.76-61.41Q172.72-61.41 170.93-59.52L170.93-59.52L170.93-59.52Q169.14-57.62 169.14-53.54L169.14-53.54L169.14-48.86L169.14-48.86Q169.14-44.97 170.76-43.11L170.76-43.11L170.76-43.11Q172.37-41.24 176.06-41.09L176.06-41.09L222.48-41.09L222.48-31.13L209.93-31.13L209.93-17.83L209.93-17.83Q209.93-13.80 211.72-11.90L211.72-11.90L211.72-11.90Q213.51-10.01 217.55-10.01L217.55-10.01L222.48-10.01ZM192.25-10.01L192.25-10.01L192.25-10.01Q196.33-10.01 198.12-11.90L198.12-11.90L198.12-11.90Q199.92-13.80 199.92-17.83L199.92-17.83L199.92-31.13L175.76-31.13L175.76-31.13Q171.68-31.13 169.88-29.29L169.88-29.29L169.88-29.29Q168.09-27.44 168.09-23.36L168.09-23.36L168.09-17.83L168.09-17.83Q168.09-13.80 169.88-11.90L169.88-11.90L169.88-11.90Q171.68-10.01 175.76-10.01L175.76-10.01L192.25-10.01ZM267.30-71.42L277.51-71.42L277.51-40.59L311.58-71.42L325.97-71.42L287.32-36.41L327.52 0L313.12 0L277.51-32.12L277.51 0L267.30 0L267.30-71.42ZM380.66-43.23L380.66-21.52L345.54-21.52L345.54-9.81L380.66-9.81L380.66 0L345.54 0L345.54 0Q343.55 0 341.76-0.77L341.76-0.77L341.76-0.77Q339.97-1.54 338.65-2.86L338.65-2.86L338.65-2.86Q337.33-4.18 336.56-5.98L336.56-5.98L336.56-5.98Q335.78-7.77 335.78-9.81L335.78-9.81L335.78-43.23L335.78-43.23Q335.78-45.27 336.56-47.07L336.56-47.07L336.56-47.07Q337.33-48.86 338.65-50.18L338.65-50.18L338.65-50.18Q339.97-51.50 341.76-52.27L341.76-52.27L341.76-52.27Q343.55-53.04 345.54-53.04L345.54-53.04L370.85-53.04L370.85-53.04Q372.89-53.04 374.68-52.27L374.68-52.27L374.68-52.27Q376.47-51.50 377.79-50.18L377.79-50.18L377.79-50.18Q379.11-48.86 379.89-47.07L379.89-47.07L379.89-47.07Q380.66-45.27 380.66-43.23L380.66-43.23ZM370.85-43.23L345.54-43.23L345.54-31.33L370.85-31.33L370.85-43.23ZM422.29 0L412.08 0L390.87-53.04L401.08-53.04L417.16-11.75L433.30-53.04L443.51-53.04L422.29 0ZM510.80 0L499.59 0L479.17-71.42L489.38-71.42L505.22-14.59L521.01-71.42L531.22-71.42L547.00-14.59L562.84-71.42L573.05-71.42L552.63 0L541.43 0L526.14-53.54L510.80 0ZM626.09-43.23L626.09-21.52L590.98-21.52L590.98-9.81L626.09-9.81L626.09 0L590.98 0L590.98 0Q588.99 0 587.20-0.77L587.20-0.77L587.20-0.77Q585.40-1.54 584.08-2.86L584.08-2.86L584.08-2.86Q582.76-4.18 581.99-5.98L581.99-5.98L581.99-5.98Q581.22-7.77 581.22-9.81L581.22-9.81L581.22-43.23L581.22-43.23Q581.22-45.27 581.99-47.07L581.99-47.07L581.99-47.07Q582.76-48.86 584.08-50.18L584.08-50.18L584.08-50.18Q585.40-51.50 587.20-52.27L587.20-52.27L587.20-52.27Q588.99-53.04 590.98-53.04L590.98-53.04L616.28-53.04L616.28-53.04Q618.33-53.04 620.12-52.27L620.12-52.27L620.12-52.27Q621.91-51.50 623.23-50.18L623.23-50.18L623.23-50.18Q624.55-48.86 625.32-47.07L625.32-47.07L625.32-47.07Q626.09-45.27 626.09-43.23L626.09-43.23ZM616.28-43.23L590.98-43.23L590.98-31.33L616.28-31.33L616.28-43.23ZM642.43-9.81L642.43-43.23L642.43-43.23Q642.43-45.27 643.20-47.07L643.20-47.07L643.20-47.07Q643.97-48.86 645.29-50.18L645.29-50.18L645.29-50.18Q646.61-51.50 648.41-52.27L648.41-52.27L648.41-52.27Q650.20-53.04 652.19-53.04L652.19-53.04L679.54-53.04L679.54-73.46L689.35-73.46L689.35 0L679.54 0L679.54-8.96L679.54-8.96Q679.39-7.12 678.54-5.48L678.54-5.48L678.54-5.48Q677.69-3.83 676.37-2.61L676.37-2.61L676.37-2.61Q675.05-1.39 673.36-0.70L673.36-0.70L673.36-0.70Q671.67 0 669.77 0L669.77 0L652.19 0L652.19 0Q650.20 0 648.41-0.77L648.41-0.77L648.41-0.77Q646.61-1.54 645.29-2.86L645.29-2.86L645.29-2.86Q643.97-4.18 643.20-5.98L643.20-5.98L643.20-5.98Q642.43-7.77 642.43-9.81L642.43-9.81ZM652.19-43.23L652.19-9.81L679.54-9.81L679.54-43.23L652.19-43.23ZM705.68-9.81L705.68-43.23L705.68-43.23Q705.68-45.27 706.45-47.07L706.45-47.07L706.45-47.07Q707.23-48.86 708.55-50.18L708.55-50.18L708.55-50.18Q709.87-51.50 711.66-52.27L711.66-52.27L711.66-52.27Q713.45-53.04 715.44-53.04L715.44-53.04L742.79-53.04L742.79-73.46L752.60-73.46L752.60 0L742.79 0L742.79-8.96L742.79-8.96Q742.64-7.12 741.79-5.48L741.79-5.48L741.79-5.48Q740.94-3.83 739.62-2.61L739.62-2.61L739.62-2.61Q738.30-1.39 736.61-0.70L736.61-0.70L736.61-0.70Q734.92 0 733.03 0L733.03 0L715.44 0L715.44 0Q713.45 0 711.66-0.77L711.66-0.77L711.66-0.77Q709.87-1.54 708.55-2.86L708.55-2.86L708.55-2.86Q707.23-4.18 706.45-5.98L706.45-5.98L706.45-5.98Q705.68-7.77 705.68-9.81L705.68-9.81ZM715.44-43.23L715.44-9.81L742.79-9.81L742.79-43.23L715.44-43.23ZM769.43-53.04L779.24-53.04L779.24 0L769.43 0L769.43-53.04ZM768.93-63.25L768.93-73.46L779.74-73.46L779.74-63.25L768.93-63.25ZM842.99-43.23L842.99 0L833.18 0L833.18-43.23L805.84-43.23L805.84 0L796.08 0L796.08-53.04L805.84-53.04L805.84-43.68L805.84-43.68Q805.94-45.62 806.74-47.34L806.74-47.34L806.74-47.34Q807.53-49.06 808.85-50.33L808.85-50.33L808.85-50.33Q810.17-51.60 811.92-52.32L811.92-52.32L811.92-52.32Q813.66-53.04 815.65-53.04L815.65-53.04L833.18-53.04L833.18-53.04Q835.22-53.04 837.02-52.27L837.02-52.27L837.02-52.27Q838.81-51.50 840.13-50.18L840.13-50.18L840.13-50.18Q841.45-48.86 842.22-47.07L842.22-47.07L842.22-47.07Q842.99-45.27 842.99-43.23L842.99-43.23ZM859.33-11.85L859.33-43.23L859.33-43.23Q859.33-45.27 860.10-47.07L860.10-47.07L860.10-47.07Q860.87-48.86 862.19-50.18L862.19-50.18L862.19-50.18Q863.51-51.50 865.31-52.27L865.31-52.27L865.31-52.27Q867.10-53.04 869.09-53.04L869.09-53.04L886.67-53.04L886.67-53.04Q888.62-53.04 890.36-52.32L890.36-52.32L890.36-52.32Q892.10-51.60 893.42-50.33L893.42-50.33L893.42-50.33Q894.74-49.06 895.56-47.34L895.56-47.34L895.56-47.34Q896.38-45.62 896.43-43.68L896.43-43.68L896.43-53.04L906.25-53.04L906.25 11.60L906.25 11.60Q906.25 13.65 905.47 15.44L905.47 15.44L905.47 15.44Q904.70 17.23 903.38 18.55L903.38 18.55L903.38 18.55Q902.06 19.87 900.27 20.64L900.27 20.64L900.27 20.64Q898.48 21.42 896.43 21.42L896.43 21.42L865.46 21.42L865.46 11.60L896.43 11.60L896.43-2.04L869.09-2.04L869.09-2.04Q867.10-2.04 865.31-2.81L865.31-2.81L865.31-2.81Q863.51-3.59 862.19-4.91L862.19-4.91L862.19-4.91Q860.87-6.23 860.10-8.02L860.10-8.02L860.10-8.02Q859.33-9.81 859.33-11.85L859.33-11.85ZM869.09-11.85L896.43-11.85L896.43-43.23L869.09-43.23L869.09-11.85Z" fill="url(#editing-outline-gradient)"></path></g></g><style>text {
  font-size: 64px;
  font-family: Arial Black;
  dominant-baseline: central;
  text-anchor: middle;
}</style></svg>